<?xml version="1.0" encoding="UTF-8" ?>
<svg version="1.1" width="32" height="32" xmlns="http://www.w3.org/2000/svg" shape-rendering="crispEdges">
<rect x="3" y="2" width="1" height="1" fill="#9C47AD" />
<rect x="4" y="2" width="1" height="1" fill="#9C47AD" />
<rect x="5" y="2" width="1" height="1" fill="#9C47AD" />
<rect x="6" y="2" width="1" height="1" fill="#9C47AD" />
<rect x="7" y="2" width="1" height="1" fill="#9C47AD" />
<rect x="8" y="2" width="1" height="1" fill="#9C47AD" />
<rect x="9" y="2" width="1" height="1" fill="#9C47AD" />
<rect x="10" y="2" width="1" height="1" fill="#9C47AD" />
<rect x="11" y="2" width="1" height="1" fill="#9C47AD" />
<rect x="12" y="2" width="1" height="1" fill="#9C47AD" />
<rect x="13" y="2" width="1" height="1" fill="#9C47AD" />
<rect x="14" y="2" width="1" height="1" fill="#9C47AD" />
<rect x="15" y="2" width="1" height="1" fill="#9C47AD" />
<rect x="16" y="2" width="1" height="1" fill="#9C47AD" />
<rect x="17" y="2" width="1" height="1" fill="#9C47AD" />
<rect x="18" y="2" width="1" height="1" fill="#9C47AD" />
<rect x="19" y="2" width="1" height="1" fill="#9C47AD" />
<rect x="20" y="2" width="1" height="1" fill="#9C47AD" />
<rect x="21" y="2" width="1" height="1" fill="#9C47AD" />
<rect x="22" y="2" width="1" height="1" fill="#9C47AD" />
<rect x="23" y="2" width="1" height="1" fill="#9C47AD" />
<rect x="24" y="2" width="1" height="1" fill="#9C47AD" />
<rect x="25" y="2" width="1" height="1" fill="#9C47AD" />
<rect x="26" y="2" width="1" height="1" fill="#9C47AD" />
<rect x="27" y="2" width="1" height="1" fill="#9C47AD" />
<rect x="2" y="3" width="1" height="1" fill="#9C47AD" />
<rect x="3" y="3" width="1" height="1" fill="#7F1095" />
<rect x="4" y="3" width="1" height="1" fill="#7F1095" />
<rect x="5" y="3" width="1" height="1" fill="#7F1095" />
<rect x="6" y="3" width="1" height="1" fill="#7F1095" />
<rect x="7" y="3" width="1" height="1" fill="#7F1095" />
<rect x="8" y="3" width="1" height="1" fill="#7F1095" />
<rect x="9" y="3" width="1" height="1" fill="#7F1095" />
<rect x="10" y="3" width="1" height="1" fill="#7F1095" />
<rect x="11" y="3" width="1" height="1" fill="#7F1095" />
<rect x="12" y="3" width="1" height="1" fill="#7F1095" />
<rect x="13" y="3" width="1" height="1" fill="#7F1095" />
<rect x="14" y="3" width="1" height="1" fill="#7F1095" />
<rect x="15" y="3" width="1" height="1" fill="#7F1095" />
<rect x="16" y="3" width="1" height="1" fill="#7F1095" />
<rect x="17" y="3" width="1" height="1" fill="#7F1095" />
<rect x="18" y="3" width="1" height="1" fill="#7F1095" />
<rect x="19" y="3" width="1" height="1" fill="#7F1095" />
<rect x="20" y="3" width="1" height="1" fill="#7F1095" />
<rect x="21" y="3" width="1" height="1" fill="#7F1095" />
<rect x="22" y="3" width="1" height="1" fill="#7F1095" />
<rect x="23" y="3" width="1" height="1" fill="#7F1095" />
<rect x="24" y="3" width="1" height="1" fill="#7F1095" />
<rect x="25" y="3" width="1" height="1" fill="#7F1095" />
<rect x="26" y="3" width="1" height="1" fill="#7F1095" />
<rect x="27" y="3" width="1" height="1" fill="#7F1095" />
<rect x="28" y="3" width="1" height="1" fill="#6A0F7C" />
<rect x="29" y="3" width="1" height="1" fill="#450951" />
<rect x="2" y="4" width="1" height="1" fill="#9C47AD" />
<rect x="3" y="4" width="1" height="1" fill="#7F1095" />
<rect x="24" y="4" width="1" height="1" fill="#7F1095" />
<rect x="25" y="4" width="1" height="1" fill="#7F1095" />
<rect x="26" y="4" width="1" height="1" fill="#7F1095" />
<rect x="27" y="4" width="1" height="1" fill="#7F1095" />
<rect x="28" y="4" width="1" height="1" fill="#6A0F7C" />
<rect x="29" y="4" width="1" height="1" fill="#450951" />
<rect x="2" y="5" width="1" height="1" fill="#9C47AD" />
<rect x="3" y="5" width="1" height="1" fill="#7F1095" />
<rect x="22" y="5" width="1" height="1" fill="#7F1095" />
<rect x="23" y="5" width="1" height="1" fill="#7F1095" />
<rect x="24" y="5" width="1" height="1" fill="#7F1095" />
<rect x="25" y="5" width="1" height="1" fill="#7F1095" />
<rect x="26" y="5" width="1" height="1" fill="#7F1095" />
<rect x="27" y="5" width="1" height="1" fill="#7F1095" />
<rect x="28" y="5" width="1" height="1" fill="#6A0F7C" />
<rect x="29" y="5" width="1" height="1" fill="#450951" />
<rect x="2" y="6" width="1" height="1" fill="#9C47AD" />
<rect x="3" y="6" width="1" height="1" fill="#7F1095" />
<rect x="20" y="6" width="1" height="1" fill="#7F1095" />
<rect x="21" y="6" width="1" height="1" fill="#7F1095" />
<rect x="22" y="6" width="1" height="1" fill="#7F1095" />
<rect x="23" y="6" width="1" height="1" fill="#7F1095" />
<rect x="24" y="6" width="1" height="1" fill="#7F1095" />
<rect x="25" y="6" width="1" height="1" fill="#7F1095" />
<rect x="26" y="6" width="1" height="1" fill="#7F1095" />
<rect x="27" y="6" width="1" height="1" fill="#7F1095" />
<rect x="28" y="6" width="1" height="1" fill="#6A0F7C" />
<rect x="29" y="6" width="1" height="1" fill="#450951" />
<rect x="2" y="7" width="1" height="1" fill="#9C47AD" />
<rect x="3" y="7" width="1" height="1" fill="#7F1095" />
<rect x="19" y="7" width="1" height="1" fill="#7F1095" />
<rect x="20" y="7" width="1" height="1" fill="#7F1095" />
<rect x="21" y="7" width="1" height="1" fill="#7F1095" />
<rect x="22" y="7" width="1" height="1" fill="#7F1095" />
<rect x="23" y="7" width="1" height="1" fill="#7F1095" />
<rect x="24" y="7" width="1" height="1" fill="#7F1095" />
<rect x="25" y="7" width="1" height="1" fill="#7F1095" />
<rect x="26" y="7" width="1" height="1" fill="#7F1095" />
<rect x="27" y="7" width="1" height="1" fill="#7F1095" />
<rect x="28" y="7" width="1" height="1" fill="#6A0F7C" />
<rect x="29" y="7" width="1" height="1" fill="#450951" />
<rect x="2" y="8" width="1" height="1" fill="#9C47AD" />
<rect x="3" y="8" width="1" height="1" fill="#7F1095" />
<rect x="18" y="8" width="1" height="1" fill="#7F1095" />
<rect x="19" y="8" width="1" height="1" fill="#7F1095" />
<rect x="20" y="8" width="1" height="1" fill="#7F1095" />
<rect x="21" y="8" width="1" height="1" fill="#7F1095" />
<rect x="22" y="8" width="1" height="1" fill="#7F1095" />
<rect x="23" y="8" width="1" height="1" fill="#7F1095" />
<rect x="27" y="8" width="1" height="1" fill="#7F1095" />
<rect x="28" y="8" width="1" height="1" fill="#6A0F7C" />
<rect x="29" y="8" width="1" height="1" fill="#450951" />
<rect x="2" y="9" width="1" height="1" fill="#9C47AD" />
<rect x="3" y="9" width="1" height="1" fill="#7F1095" />
<rect x="17" y="9" width="1" height="1" fill="#7F1095" />
<rect x="18" y="9" width="1" height="1" fill="#7F1095" />
<rect x="19" y="9" width="1" height="1" fill="#7F1095" />
<rect x="20" y="9" width="1" height="1" fill="#7F1095" />
<rect x="21" y="9" width="1" height="1" fill="#7F1095" />
<rect x="22" y="9" width="1" height="1" fill="#7F1095" />
<rect x="27" y="9" width="1" height="1" fill="#7F1095" />
<rect x="28" y="9" width="1" height="1" fill="#6A0F7C" />
<rect x="29" y="9" width="1" height="1" fill="#450951" />
<rect x="2" y="10" width="1" height="1" fill="#9C47AD" />
<rect x="3" y="10" width="1" height="1" fill="#7F1095" />
<rect x="16" y="10" width="1" height="1" fill="#7F1095" />
<rect x="17" y="10" width="1" height="1" fill="#7F1095" />
<rect x="18" y="10" width="1" height="1" fill="#7F1095" />
<rect x="19" y="10" width="1" height="1" fill="#7F1095" />
<rect x="20" y="10" width="1" height="1" fill="#7F1095" />
<rect x="21" y="10" width="1" height="1" fill="#7F1095" />
<rect x="27" y="10" width="1" height="1" fill="#7F1095" />
<rect x="28" y="10" width="1" height="1" fill="#6A0F7C" />
<rect x="29" y="10" width="1" height="1" fill="#450951" />
<rect x="2" y="11" width="1" height="1" fill="#9C47AD" />
<rect x="3" y="11" width="1" height="1" fill="#7F1095" />
<rect x="15" y="11" width="1" height="1" fill="#7F1095" />
<rect x="16" y="11" width="1" height="1" fill="#7F1095" />
<rect x="17" y="11" width="1" height="1" fill="#7F1095" />
<rect x="18" y="11" width="1" height="1" fill="#7F1095" />
<rect x="19" y="11" width="1" height="1" fill="#7F1095" />
<rect x="27" y="11" width="1" height="1" fill="#7F1095" />
<rect x="28" y="11" width="1" height="1" fill="#6A0F7C" />
<rect x="29" y="11" width="1" height="1" fill="#450951" />
<rect x="2" y="12" width="1" height="1" fill="#9C47AD" />
<rect x="3" y="12" width="1" height="1" fill="#7F1095" />
<rect x="14" y="12" width="1" height="1" fill="#7F1095" />
<rect x="15" y="12" width="1" height="1" fill="#7F1095" />
<rect x="16" y="12" width="1" height="1" fill="#7F1095" />
<rect x="17" y="12" width="1" height="1" fill="#7F1095" />
<rect x="18" y="12" width="1" height="1" fill="#7F1095" />
<rect x="27" y="12" width="1" height="1" fill="#7F1095" />
<rect x="28" y="12" width="1" height="1" fill="#6A0F7C" />
<rect x="29" y="12" width="1" height="1" fill="#450951" />
<rect x="2" y="13" width="1" height="1" fill="#9C47AD" />
<rect x="3" y="13" width="1" height="1" fill="#7F1095" />
<rect x="13" y="13" width="1" height="1" fill="#7F1095" />
<rect x="14" y="13" width="1" height="1" fill="#7F1095" />
<rect x="15" y="13" width="1" height="1" fill="#7F1095" />
<rect x="16" y="13" width="1" height="1" fill="#7F1095" />
<rect x="17" y="13" width="1" height="1" fill="#7F1095" />
<rect x="27" y="13" width="1" height="1" fill="#7F1095" />
<rect x="28" y="13" width="1" height="1" fill="#6A0F7C" />
<rect x="29" y="13" width="1" height="1" fill="#450951" />
<rect x="2" y="14" width="1" height="1" fill="#9C47AD" />
<rect x="3" y="14" width="1" height="1" fill="#7F1095" />
<rect x="12" y="14" width="1" height="1" fill="#7F1095" />
<rect x="13" y="14" width="1" height="1" fill="#7F1095" />
<rect x="14" y="14" width="1" height="1" fill="#7F1095" />
<rect x="15" y="14" width="1" height="1" fill="#7F1095" />
<rect x="16" y="14" width="1" height="1" fill="#7F1095" />
<rect x="27" y="14" width="1" height="1" fill="#7F1095" />
<rect x="28" y="14" width="1" height="1" fill="#6A0F7C" />
<rect x="29" y="14" width="1" height="1" fill="#450951" />
<rect x="2" y="15" width="1" height="1" fill="#9C47AD" />
<rect x="3" y="15" width="1" height="1" fill="#7F1095" />
<rect x="12" y="15" width="1" height="1" fill="#7F1095" />
<rect x="13" y="15" width="1" height="1" fill="#7F1095" />
<rect x="14" y="15" width="1" height="1" fill="#7F1095" />
<rect x="15" y="15" width="1" height="1" fill="#7F1095" />
<rect x="16" y="15" width="1" height="1" fill="#7F1095" />
<rect x="27" y="15" width="1" height="1" fill="#7F1095" />
<rect x="28" y="15" width="1" height="1" fill="#6A0F7C" />
<rect x="29" y="15" width="1" height="1" fill="#450951" />
<rect x="2" y="16" width="1" height="1" fill="#9C47AD" />
<rect x="3" y="16" width="1" height="1" fill="#7F1095" />
<rect x="11" y="16" width="1" height="1" fill="#7F1095" />
<rect x="12" y="16" width="1" height="1" fill="#7F1095" />
<rect x="13" y="16" width="1" height="1" fill="#7F1095" />
<rect x="14" y="16" width="1" height="1" fill="#7F1095" />
<rect x="15" y="16" width="1" height="1" fill="#7F1095" />
<rect x="27" y="16" width="1" height="1" fill="#7F1095" />
<rect x="28" y="16" width="1" height="1" fill="#6A0F7C" />
<rect x="29" y="16" width="1" height="1" fill="#450951" />
<rect x="2" y="17" width="1" height="1" fill="#9C47AD" />
<rect x="3" y="17" width="1" height="1" fill="#7F1095" />
<rect x="11" y="17" width="1" height="1" fill="#7F1095" />
<rect x="12" y="17" width="1" height="1" fill="#7F1095" />
<rect x="13" y="17" width="1" height="1" fill="#7F1095" />
<rect x="14" y="17" width="1" height="1" fill="#7F1095" />
<rect x="15" y="17" width="1" height="1" fill="#7F1095" />
<rect x="27" y="17" width="1" height="1" fill="#7F1095" />
<rect x="28" y="17" width="1" height="1" fill="#6A0F7C" />
<rect x="29" y="17" width="1" height="1" fill="#450951" />
<rect x="2" y="18" width="1" height="1" fill="#9C47AD" />
<rect x="3" y="18" width="1" height="1" fill="#7F1095" />
<rect x="5" y="18" width="1" height="1" fill="#7F1095" />
<rect x="6" y="18" width="1" height="1" fill="#7F1095" />
<rect x="7" y="18" width="1" height="1" fill="#7F1095" />
<rect x="11" y="18" width="1" height="1" fill="#7F1095" />
<rect x="12" y="18" width="1" height="1" fill="#7F1095" />
<rect x="13" y="18" width="1" height="1" fill="#7F1095" />
<rect x="14" y="18" width="1" height="1" fill="#7F1095" />
<rect x="27" y="18" width="1" height="1" fill="#7F1095" />
<rect x="28" y="18" width="1" height="1" fill="#6A0F7C" />
<rect x="29" y="18" width="1" height="1" fill="#450951" />
<rect x="2" y="19" width="1" height="1" fill="#9C47AD" />
<rect x="3" y="19" width="1" height="1" fill="#7F1095" />
<rect x="4" y="19" width="1" height="1" fill="#7F1095" />
<rect x="5" y="19" width="1" height="1" fill="#7F1095" />
<rect x="6" y="19" width="1" height="1" fill="#7F1095" />
<rect x="7" y="19" width="1" height="1" fill="#7F1095" />
<rect x="8" y="19" width="1" height="1" fill="#7F1095" />
<rect x="10" y="19" width="1" height="1" fill="#7F1095" />
<rect x="11" y="19" width="1" height="1" fill="#7F1095" />
<rect x="12" y="19" width="1" height="1" fill="#7F1095" />
<rect x="13" y="19" width="1" height="1" fill="#7F1095" />
<rect x="14" y="19" width="1" height="1" fill="#7F1095" />
<rect x="27" y="19" width="1" height="1" fill="#7F1095" />
<rect x="28" y="19" width="1" height="1" fill="#6A0F7C" />
<rect x="29" y="19" width="1" height="1" fill="#450951" />
<rect x="2" y="20" width="1" height="1" fill="#9C47AD" />
<rect x="3" y="20" width="1" height="1" fill="#7F1095" />
<rect x="4" y="20" width="1" height="1" fill="#7F1095" />
<rect x="5" y="20" width="1" height="1" fill="#7F1095" />
<rect x="6" y="20" width="1" height="1" fill="#7F1095" />
<rect x="7" y="20" width="1" height="1" fill="#7F1095" />
<rect x="8" y="20" width="1" height="1" fill="#7F1095" />
<rect x="9" y="20" width="1" height="1" fill="#7F1095" />
<rect x="10" y="20" width="1" height="1" fill="#7F1095" />
<rect x="11" y="20" width="1" height="1" fill="#7F1095" />
<rect x="12" y="20" width="1" height="1" fill="#7F1095" />
<rect x="13" y="20" width="1" height="1" fill="#7F1095" />
<rect x="27" y="20" width="1" height="1" fill="#7F1095" />
<rect x="28" y="20" width="1" height="1" fill="#6A0F7C" />
<rect x="29" y="20" width="1" height="1" fill="#450951" />
<rect x="2" y="21" width="1" height="1" fill="#9C47AD" />
<rect x="3" y="21" width="1" height="1" fill="#7F1095" />
<rect x="5" y="21" width="1" height="1" fill="#7F1095" />
<rect x="6" y="21" width="1" height="1" fill="#7F1095" />
<rect x="7" y="21" width="1" height="1" fill="#7F1095" />
<rect x="8" y="21" width="1" height="1" fill="#7F1095" />
<rect x="9" y="21" width="1" height="1" fill="#7F1095" />
<rect x="10" y="21" width="1" height="1" fill="#7F1095" />
<rect x="11" y="21" width="1" height="1" fill="#7F1095" />
<rect x="12" y="21" width="1" height="1" fill="#7F1095" />
<rect x="13" y="21" width="1" height="1" fill="#7F1095" />
<rect x="27" y="21" width="1" height="1" fill="#7F1095" />
<rect x="28" y="21" width="1" height="1" fill="#6A0F7C" />
<rect x="29" y="21" width="1" height="1" fill="#450951" />
<rect x="2" y="22" width="1" height="1" fill="#9C47AD" />
<rect x="3" y="22" width="1" height="1" fill="#7F1095" />
<rect x="6" y="22" width="1" height="1" fill="#7F1095" />
<rect x="7" y="22" width="1" height="1" fill="#7F1095" />
<rect x="8" y="22" width="1" height="1" fill="#7F1095" />
<rect x="9" y="22" width="1" height="1" fill="#7F1095" />
<rect x="10" y="22" width="1" height="1" fill="#7F1095" />
<rect x="11" y="22" width="1" height="1" fill="#7F1095" />
<rect x="12" y="22" width="1" height="1" fill="#7F1095" />
<rect x="13" y="22" width="1" height="1" fill="#7F1095" />
<rect x="27" y="22" width="1" height="1" fill="#7F1095" />
<rect x="28" y="22" width="1" height="1" fill="#6A0F7C" />
<rect x="29" y="22" width="1" height="1" fill="#450951" />
<rect x="2" y="23" width="1" height="1" fill="#9C47AD" />
<rect x="3" y="23" width="1" height="1" fill="#7F1095" />
<rect x="7" y="23" width="1" height="1" fill="#7F1095" />
<rect x="8" y="23" width="1" height="1" fill="#7F1095" />
<rect x="9" y="23" width="1" height="1" fill="#7F1095" />
<rect x="10" y="23" width="1" height="1" fill="#7F1095" />
<rect x="11" y="23" width="1" height="1" fill="#7F1095" />
<rect x="12" y="23" width="1" height="1" fill="#7F1095" />
<rect x="27" y="23" width="1" height="1" fill="#7F1095" />
<rect x="28" y="23" width="1" height="1" fill="#6A0F7C" />
<rect x="29" y="23" width="1" height="1" fill="#450951" />
<rect x="2" y="24" width="1" height="1" fill="#9C47AD" />
<rect x="3" y="24" width="1" height="1" fill="#7F1095" />
<rect x="8" y="24" width="1" height="1" fill="#7F1095" />
<rect x="9" y="24" width="1" height="1" fill="#7F1095" />
<rect x="10" y="24" width="1" height="1" fill="#7F1095" />
<rect x="11" y="24" width="1" height="1" fill="#7F1095" />
<rect x="12" y="24" width="1" height="1" fill="#7F1095" />
<rect x="27" y="24" width="1" height="1" fill="#7F1095" />
<rect x="28" y="24" width="1" height="1" fill="#6A0F7C" />
<rect x="29" y="24" width="1" height="1" fill="#450951" />
<rect x="2" y="25" width="1" height="1" fill="#9C47AD" />
<rect x="3" y="25" width="1" height="1" fill="#7F1095" />
<rect x="8" y="25" width="1" height="1" fill="#7F1095" />
<rect x="9" y="25" width="1" height="1" fill="#7F1095" />
<rect x="10" y="25" width="1" height="1" fill="#7F1095" />
<rect x="11" y="25" width="1" height="1" fill="#7F1095" />
<rect x="12" y="25" width="1" height="1" fill="#7F1095" />
<rect x="27" y="25" width="1" height="1" fill="#7F1095" />
<rect x="28" y="25" width="1" height="1" fill="#6A0F7C" />
<rect x="29" y="25" width="1" height="1" fill="#450951" />
<rect x="2" y="26" width="1" height="1" fill="#9C47AD" />
<rect x="3" y="26" width="1" height="1" fill="#7F1095" />
<rect x="9" y="26" width="1" height="1" fill="#7F1095" />
<rect x="10" y="26" width="1" height="1" fill="#7F1095" />
<rect x="11" y="26" width="1" height="1" fill="#7F1095" />
<rect x="12" y="26" width="1" height="1" fill="#7F1095" />
<rect x="27" y="26" width="1" height="1" fill="#7F1095" />
<rect x="28" y="26" width="1" height="1" fill="#6A0F7C" />
<rect x="29" y="26" width="1" height="1" fill="#450951" />
<rect x="2" y="27" width="1" height="1" fill="#9C47AD" />
<rect x="3" y="27" width="1" height="1" fill="#7F1095" />
<rect x="10" y="27" width="1" height="1" fill="#7F1095" />
<rect x="11" y="27" width="1" height="1" fill="#7F1095" />
<rect x="27" y="27" width="1" height="1" fill="#7F1095" />
<rect x="28" y="27" width="1" height="1" fill="#6A0F7C" />
<rect x="29" y="27" width="1" height="1" fill="#450951" />
<rect x="2" y="28" width="1" height="1" fill="#9C47AD" />
<rect x="3" y="28" width="1" height="1" fill="#7F1095" />
<rect x="4" y="28" width="1" height="1" fill="#7F1095" />
<rect x="5" y="28" width="1" height="1" fill="#7F1095" />
<rect x="6" y="28" width="1" height="1" fill="#7F1095" />
<rect x="7" y="28" width="1" height="1" fill="#7F1095" />
<rect x="8" y="28" width="1" height="1" fill="#7F1095" />
<rect x="9" y="28" width="1" height="1" fill="#7F1095" />
<rect x="10" y="28" width="1" height="1" fill="#7F1095" />
<rect x="11" y="28" width="1" height="1" fill="#7F1095" />
<rect x="12" y="28" width="1" height="1" fill="#7F1095" />
<rect x="13" y="28" width="1" height="1" fill="#7F1095" />
<rect x="14" y="28" width="1" height="1" fill="#7F1095" />
<rect x="15" y="28" width="1" height="1" fill="#7F1095" />
<rect x="16" y="28" width="1" height="1" fill="#7F1095" />
<rect x="17" y="28" width="1" height="1" fill="#7F1095" />
<rect x="18" y="28" width="1" height="1" fill="#7F1095" />
<rect x="19" y="28" width="1" height="1" fill="#7F1095" />
<rect x="20" y="28" width="1" height="1" fill="#7F1095" />
<rect x="21" y="28" width="1" height="1" fill="#7F1095" />
<rect x="22" y="28" width="1" height="1" fill="#7F1095" />
<rect x="23" y="28" width="1" height="1" fill="#7F1095" />
<rect x="24" y="28" width="1" height="1" fill="#7F1095" />
<rect x="25" y="28" width="1" height="1" fill="#7F1095" />
<rect x="26" y="28" width="1" height="1" fill="#7F1095" />
<rect x="27" y="28" width="1" height="1" fill="#7F1095" />
<rect x="28" y="28" width="1" height="1" fill="#6A0F7C" />
<rect x="29" y="28" width="1" height="1" fill="#450951" />
<rect x="2" y="29" width="1" height="1" fill="#450951" />
<rect x="3" y="29" width="1" height="1" fill="#6A0F7C" />
<rect x="4" y="29" width="1" height="1" fill="#6A0F7C" />
<rect x="5" y="29" width="1" height="1" fill="#6A0F7C" />
<rect x="6" y="29" width="1" height="1" fill="#6A0F7C" />
<rect x="7" y="29" width="1" height="1" fill="#6A0F7C" />
<rect x="8" y="29" width="1" height="1" fill="#6A0F7C" />
<rect x="9" y="29" width="1" height="1" fill="#6A0F7C" />
<rect x="10" y="29" width="1" height="1" fill="#6A0F7C" />
<rect x="11" y="29" width="1" height="1" fill="#6A0F7C" />
<rect x="12" y="29" width="1" height="1" fill="#6A0F7C" />
<rect x="13" y="29" width="1" height="1" fill="#6A0F7C" />
<rect x="14" y="29" width="1" height="1" fill="#6A0F7C" />
<rect x="15" y="29" width="1" height="1" fill="#6A0F7C" />
<rect x="16" y="29" width="1" height="1" fill="#6A0F7C" />
<rect x="17" y="29" width="1" height="1" fill="#6A0F7C" />
<rect x="18" y="29" width="1" height="1" fill="#6A0F7C" />
<rect x="19" y="29" width="1" height="1" fill="#6A0F7C" />
<rect x="20" y="29" width="1" height="1" fill="#6A0F7C" />
<rect x="21" y="29" width="1" height="1" fill="#6A0F7C" />
<rect x="22" y="29" width="1" height="1" fill="#6A0F7C" />
<rect x="23" y="29" width="1" height="1" fill="#6A0F7C" />
<rect x="24" y="29" width="1" height="1" fill="#6A0F7C" />
<rect x="25" y="29" width="1" height="1" fill="#6A0F7C" />
<rect x="26" y="29" width="1" height="1" fill="#6A0F7C" />
<rect x="27" y="29" width="1" height="1" fill="#6A0F7C" />
<rect x="28" y="29" width="1" height="1" fill="#450951" />
<rect x="3" y="30" width="1" height="1" fill="#450951" />
<rect x="4" y="30" width="1" height="1" fill="#450951" />
<rect x="5" y="30" width="1" height="1" fill="#450951" />
<rect x="6" y="30" width="1" height="1" fill="#450951" />
<rect x="7" y="30" width="1" height="1" fill="#450951" />
<rect x="8" y="30" width="1" height="1" fill="#450951" />
<rect x="9" y="30" width="1" height="1" fill="#450951" />
<rect x="10" y="30" width="1" height="1" fill="#450951" />
<rect x="11" y="30" width="1" height="1" fill="#450951" />
<rect x="12" y="30" width="1" height="1" fill="#450951" />
<rect x="13" y="30" width="1" height="1" fill="#450951" />
<rect x="14" y="30" width="1" height="1" fill="#450951" />
<rect x="15" y="30" width="1" height="1" fill="#450951" />
<rect x="16" y="30" width="1" height="1" fill="#450951" />
<rect x="17" y="30" width="1" height="1" fill="#450951" />
<rect x="18" y="30" width="1" height="1" fill="#450951" />
<rect x="19" y="30" width="1" height="1" fill="#450951" />
<rect x="20" y="30" width="1" height="1" fill="#450951" />
<rect x="21" y="30" width="1" height="1" fill="#450951" />
<rect x="22" y="30" width="1" height="1" fill="#450951" />
<rect x="23" y="30" width="1" height="1" fill="#450951" />
<rect x="24" y="30" width="1" height="1" fill="#450951" />
<rect x="25" y="30" width="1" height="1" fill="#450951" />
<rect x="26" y="30" width="1" height="1" fill="#450951" />
<rect x="27" y="30" width="1" height="1" fill="#450951" />
</svg>